<?xml version="1.0" standalone="no"?>
<!DOCTYPE svg PUBLIC "-//W3C//DTD SVG 20010904//EN" "http://www.w3.org/TR/2001/REC-SVG-20010904/DTD/svg10.dtd">
<svg
  version="1.0"
  xmlns="http://www.w3.org/2000/svg"
  width="371pt"
  height="371pt"
  viewBox="0 0 371 371"
  preserveAspectRatio="xMidYMid meet"
>
  <g
    transform="translate(0.000000,371.000000) scale(0.100000,-0.100000)"
    fill="#fff"
    stroke="none"
  >
    <path
      d="M419 3646 c-58 -16 -143 -69 -173 -110 -13 -17 -34 -51 -47 -76 l-24
-45 0 -1520 0 -1520 28 -57 c34 -69 115 -145 183 -173 48 -20 75 -20 1523 -23
1635 -3 1543 -6 1648 63 58 39 103 98 127 168 14 43 16 189 16 1542 0 1482 0
1495 -20 1549 -28 73 -99 147 -175 183 l-60 28 -1490 2 c-1167 1 -1500 -1
-1536 -11z m266 -141 c406 -82 628 -169 708 -276 30 -42 33 -107 7 -159 -28
-54 -113 -141 -200 -202 -156 -110 -451 -260 -767 -389 l-143 -58 0 152 0 152
143 39 c429 118 667 222 667 293 0 42 -87 80 -235 103 -69 11 -496 50 -547 50
-28 0 -28 1 -28 68 0 99 15 140 70 193 42 42 90 65 140 68 8 0 92 -15 185 -34z
m840 2 c165 -42 246 -85 286 -151 113 -185 -272 -529 -1046 -931 -152 -80
-456 -225 -469 -225 -4 0 -5 43 -4 96 l3 95 170 70 c228 94 566 262 695 347
294 192 362 349 211 485 -81 74 -219 130 -486 198 l-190 49 365 -4 c354 -3
368 -4 465 -29z m1155 28 c0 -14 -232 -269 -369 -405 -258 -257 -389 -351
-691 -496 -548 -263 -747 -389 -970 -614 -131 -132 -220 -251 -302 -407 l-57
-108 -1 330 0 330 78 34 c131 58 540 266 682 347 361 205 628 408 736 560 139
195 82 324 -181 410 l-70 23 573 1 c314 0 572 -2 572 -5z m420 1 c0 -2 -57
-51 -127 -107 -679 -550 -1040 -865 -1338 -1170 -190 -194 -283 -304 -380
-449 -94 -140 -127 -221 -133 -326 -5 -91 11 -135 69 -192 183 -179 795 -166
1769 38 175 36 564 125 603 136 16 5 17 -8 17 -184 l0 -189 -212 -7 c-419 -14
-742 -51 -1002 -116 -248 -61 -404 -131 -536 -238 -73 -59 -145 -90 -241 -104
-275 -39 -726 149 -1201 500 l-98 72 0 105 c0 93 4 115 30 183 104 269 342
550 640 754 142 97 290 180 540 300 287 138 324 158 442 235 185 123 445 368
683 646 l100 117 188 0 c103 0 187 -2 187 -4z m280 0 c0 -5 -24 -28 -345 -326
-419 -390 -748 -729 -937 -966 -246 -309 -333 -548 -240 -663 68 -85 142 -111
336 -118 271 -11 646 54 1195 207 100 27 184 50 187 50 2 0 4 -49 4 -110 l0
-109 -37 -10 c-74 -20 -490 -113 -633 -142 -307 -63 -630 -114 -880 -140 -163
-17 -486 -15 -580 4 -340 68 -392 250 -167 587 93 140 201 265 427 491 293
294 588 551 1240 1081 l205 168 113 0 c61 0 112 -2 112 -4z m95 -31 c61 -35
105 -107 105 -169 0 -27 -23 -54 -177 -206 -377 -373 -616 -664 -741 -900
-138 -260 -104 -406 100 -440 146 -25 399 20 731 129 l87 28 0 -97 0 -98 -152
-42 c-326 -91 -633 -161 -868 -197 -166 -25 -462 -25 -547 1 -143 43 -191 138
-147 287 70 236 404 642 975 1185 277 263 580 544 588 544 2 0 23 -11 46 -25z
m-39 -909 c-161 -158 -255 -272 -298 -361 -32 -68 -35 -97 -12 -119 47 -48
164 -23 417 88 l38 17 -3 -123 -3 -122 -120 -39 c-364 -118 -635 -153 -758
-99 -62 28 -87 66 -87 136 0 203 246 557 730 1049 l235 239 3 -262 2 -263
-144 -141z m-2850 564 c254 -22 376 -41 443 -71 32 -14 42 -23 37 -35 -3 -8
-6 -17 -6 -19 0 -10 -107 -68 -175 -95 -126 -50 -546 -180 -582 -180 -10 0
-13 46 -13 210 l0 210 33 0 c17 0 136 -9 263 -20z m2994 -689 l0 -219 -120
-51 c-329 -139 -397 -98 -223 134 55 73 324 355 339 355 2 0 4 -99 4 -219z
m-3173 -1393 c133 -99 325 -218 474 -293 289 -147 538 -211 719 -185 94 13
160 44 262 120 277 209 739 313 1496 336 l222 7 0 -102 0 -103 -37 6 c-203 31
-463 37 -613 12 -276 -45 -469 -165 -602 -376 -20 -30 -58 -101 -87 -157 l-51
-103 -620 0 c-341 0 -620 2 -620 3 0 2 33 20 73 40 78 39 132 87 142 127 25
108 -245 218 -657 265 -73 9 -152 18 -175 21 l-43 5 0 230 c0 182 3 229 13
223 6 -5 54 -39 104 -76z m3018 -229 c50 -5 105 -12 123 -15 l32 -6 0 -88 0
-88 -96 34 c-119 43 -260 68 -335 60 -196 -20 -321 -153 -370 -393 -11 -53
-22 -100 -25 -105 -7 -11 -524 -10 -524 1 0 4 25 57 55 116 101 199 210 316
371 395 196 98 435 125 769 89z m-64 -154 c35 -9 99 -30 142 -47 l77 -29 0
-100 c0 -141 -30 -201 -125 -252 -38 -21 -55 -22 -354 -25 l-313 -4 6 49 c26
180 99 320 200 382 84 52 227 62 367 26z m-2953 -35 c386 -41 685 -130 724
-216 10 -20 8 -29 -9 -52 -56 -75 -211 -142 -350 -149 -51 -3 -93 -3 -93 0 0
3 22 19 50 37 55 36 110 93 110 116 0 29 -46 62 -106 74 -65 14 -239 16 -363
5 l-81 -7 0 101 c0 63 4 101 10 101 6 0 54 -5 108 -10z m254 -209 c90 -10 148
-32 148 -55 0 -23 -79 -84 -157 -123 -68 -34 -76 -35 -139 -29 -79 8 -132 33
-171 81 -26 31 -58 104 -49 112 3 3 188 19 246 21 19 1 74 -2 122 -7z"
    />
  </g>
</svg>
